<?xml version="1.0" standalone="no"?><!DOCTYPE svg PUBLIC "-//W3C//DTD SVG 1.1//EN" "http://www.w3.org/Graphics/SVG/1.1/DTD/svg11.dtd"><svg t="1651338318049" class="icon" viewBox="0 0 1093 1024" version="1.1" xmlns="http://www.w3.org/2000/svg" p-id="2145" xmlns:xlink="http://www.w3.org/1999/xlink" width="68.3125" height="64"><defs><style type="text/css"></style></defs><path d="M735.939477 311.681486L579.835189 46.016136l-14.807537 25.189974 136.896167 232.973545 34.015658 7.501831z" fill="#FFE33B" p-id="2146"></path><path d="M530.497163 837.018076l294.863655 128.977567L794.238023 645.991046l-0.772247-7.906342 5.270895-5.957337 205.773277-232.287103-249.019129-54.890852-6.937969-11.81661-50.551557-11.142426-7.771505-1.703848-4.032848-6.864421L554.449089 89.212957 404.179559 344.949412 65.665541 419.575475 295.611386 679.087361l-25.827384 265.567287 246.089493-107.636572 7.354736-3.187053z m61.289473-337.839834c18.092652-10.443726 36.148531-13.0424 40.328473-5.810242s-7.109579 21.573895-25.202231 32.017621-36.148531 13.054658-40.328473 5.810242 7.085063-21.573895 25.177715-32.017621z m-25.226747 91.125189c4.179942-7.232158 22.235821-4.633484 40.328473 5.810242s29.418947 24.785463 25.202232 32.029878-22.235821 4.633484-40.328474-5.810242-29.382173-24.785463-25.202231-32.029878z m-51.188968-164.255788c8.359884 0 15.1385 16.94041 15.1385 37.827863s-6.778616 37.827863-15.1385 37.827863-15.126242-16.928152-15.126242-37.827863 6.766358-37.889152 15.126242-37.889152zM438.99198 622.333309c-18.10491 10.443726-36.148531 13.0424-40.328474 5.810242s7.097321-21.573895 25.189974-32.029878 36.148531-13.0424 40.328473-5.810242-7.097321 21.573895-25.189973 32.029878z m25.189973-91.137446c-4.179942 7.244416-22.235821 4.645742-40.328473-5.810242s-29.418947-24.773205-25.189974-32.017621 22.223563-4.633484 40.328474 5.810242 29.369915 24.785463 25.189973 32.017621z m51.188968 164.329335c-8.359884 0-15.126242-16.94041-15.126242-37.827863s6.766358-37.840121 15.126242-37.84012 15.1385 16.94041 15.1385 37.84012-6.778616 37.827863-15.1385 37.827863z" fill="#FFE33B" p-id="2147"></path><path d="M1093.992578 419.575475l-69.097752-15.236563-212.502861 239.825708 34.125979 350.980296-323.338744-141.407072-255.41775 111.706193-5.699921 58.555963L579.835189 885.019991l317.761402 138.980009-33.5376-344.924896 229.933587-259.499629z" fill="#FFE33B" p-id="2148"></path><path d="M846.517944 995.144916l-34.125979-350.980296 212.502861-239.825708 21.463574-24.2216-310.418923-68.435826-34.015658-7.501831L565.088942 71.20611 523.1792 0 344.446839 304.179655 0 380.117312l233.978692 264.047308L199.803682 995.144916l67.920994-29.700879 255.41775-111.718451z m-576.733942-50.490268l-48.78642 21.340995L252.132634 645.991046l0.772248-7.906342-5.270895-5.957337-213.409945-240.879887 314.145323-69.257104 7.771505-1.703848 4.032847-6.864421 163.029999-277.420671 31.269889 53.211521L686.19694 313.422107l4.032848 6.864421 7.771505 1.703848 50.551557 11.142426 263.544734 58.114678-7.62441 8.580526-205.736503 232.238072-5.270895 5.957336 0.772247 7.906343 31.122795 320.065886-294.863655-128.977567-7.354737-3.187053-7.354737 3.187053z" fill="#8CBE46" p-id="2149"></path><path d="M515.370921 501.642079c8.359884 0 15.1385-16.928152 15.1385-37.827863s-6.778616-37.827863-15.1385-37.827862-15.126242 16.94041-15.126242 37.827862 6.766358 37.827863 15.126242 37.827863zM515.370921 619.857215c-8.359884 0-15.126242 16.94041-15.126242 37.84012s6.766358 37.827863 15.126242 37.827863 15.1385-16.94041 15.1385-37.827863-6.778616-37.840121-15.1385-37.84012zM438.99198 499.178242c-18.10491-10.443726-36.148531-13.0424-40.328474-5.810242s7.097321 21.573895 25.189974 32.017621 36.148531 13.054658 40.328473 5.810242-7.097321-21.573895-25.189973-32.017621zM591.76212 622.333309c18.092652 10.443726 36.148531 13.0424 40.328474 5.810242s-7.109579-21.573895-25.202232-32.029878-36.148531-13.0424-40.328473-5.810242 7.109579 21.573895 25.202231 32.029878zM423.85348 596.113673c-18.092652 10.455984-29.418947 24.785463-25.189974 32.029878s22.223563 4.633484 40.328474-5.810242 29.418947-24.785463 25.189973-32.029878-22.235821-4.633484-40.328473 5.810242zM606.888362 525.385621c18.092652-10.443726 29.418947-24.773205 25.202232-32.017621s-22.235821-4.633484-40.328474 5.810242-29.418947 24.785463-25.202231 32.017621 22.235821 4.645742 40.328473-5.810242z" fill="#FFFFFF" p-id="2150"></path></svg>